# xmcd
#
# Track frame offsets: 
#        150
#        12729
#        22852
#        44848
#        62300
#        81111
#        90309
#        118859
#        128595
#        146347
#
# Disc length: 2163 seconds
#
# Revision: 0
# Processed by: cddbd v1.5.2PL0 Copyright (c) Steve Scherf et al.
# Submitted via: ExactAudioCopy v0.95b3
#
DISCID=7908710a
DTITLE=Ryan Bingham - Dead Horses
DYEAR=2006
DGENRE=Country
TTITLE0=Big Country Sky
TTITLE1=Dollar A Day
TTITLE2=Sunrise
TTITLE3=Long Way From Georgia
TTITLE4=Ghost Of Travelin´
TTITLE5=Barochos Station
TTITLE6=Southside Of Heaven
TTITLE7=The Other Side
TTITLE8=Don´t  Wait For Me
TTITLE9=Ever Wonder Why
EXTD=
EXTT0=
EXTT1=
EXTT2=
EXTT3=
EXTT4=
EXTT5=
EXTT6=
EXTT7=
EXTT8=
EXTT9=
PLAYORDER=
